<svg xmlns="http://www.w3.org/2000/svg" xmlns:xlink="http://www.w3.org/1999/xlink" viewBox="0 0 350.53 276.98"><defs><style>.cls-1{fill:none;}.cls-2{fill:#333;stroke:#333;stroke-miterlimit:10;}.cls-3{fill:#010001;}.cls-4{clip-path:url(#clip-path);}.cls-5{fill:#e95245;}.cls-6{fill:#eee4d2;}.cls-7{fill:#e85246;}.cls-8{fill:#f9b663;}.cls-9{clip-path:url(#clip-path-2);}.cls-10{fill:#060707;}</style><clipPath id="clip-path"><rect class="cls-1" x="186.63" y="13.41" width="31.67" height="31.67"/></clipPath><clipPath id="clip-path-2"><rect class="cls-1" x="263.21" y="220.61" width="27.53" height="13.88"/></clipPath></defs><title>Asset_1</title><g id="Layer_2" data-name="Layer 2"><g id="Layer_1-2" data-name="Layer 1"><g id="illustration"><polygon class="cls-2" points="189.84 256.41 37.59 168.46 38.81 168.01 190.12 255.37 189.84 256.41"/><rect class="cls-2" x="132.59" y="113.87" width="1.03" height="174.71" transform="translate(-107.71 215.89) rotate(-60)"/><rect class="cls-2" x="151.49" y="102.95" width="1.03" height="174.71" transform="translate(-88.81 226.8) rotate(-60)"/><rect class="cls-2" x="170.39" y="92.04" width="1.03" height="174.71" transform="translate(-69.91 237.71) rotate(-60)"/><rect class="cls-2" x="189.3" y="81.13" width="1.03" height="174.71" transform="translate(-51.01 248.63) rotate(-60)"/><rect class="cls-2" x="208.2" y="70.22" width="1.03" height="174.71" transform="translate(-32.1 259.54) rotate(-60)"/><rect class="cls-2" x="227.1" y="59.3" width="1.03" height="174.71" transform="matrix(0.5, -0.87, 0.87, 0.5, -13.2, 270.45)"/><rect class="cls-2" x="246" y="48.39" width="1.03" height="174.71" transform="translate(5.7 281.36) rotate(-60)"/><polygon class="cls-2" points="340.81 168.96 189.51 81.6 189.81 80.58 342.05 168.49 340.81 168.96"/><polygon class="cls-2" points="189.84 256.41 189.55 255.34 340.85 167.98 342.05 168.49 189.84 256.41"/><rect class="cls-2" x="159.2" y="200.68" width="174.71" height="1.03" transform="translate(-67.58 150.35) rotate(-30.02)"/><rect class="cls-2" x="140.3" y="189.76" width="174.71" height="1.03" transform="translate(-64.66 139.45) rotate(-30.03)"/><rect class="cls-2" x="121.4" y="178.85" width="174.71" height="1.03" transform="translate(-61.74 128.51) rotate(-30.02)"/><polygon class="cls-2" points="3.95 276.48 1.87 276.48 350.03 76.15 350.03 77.35 3.95 276.48"/><rect class="cls-2" x="83.59" y="157.02" width="174.71" height="1.03" transform="translate(-55.89 106.67) rotate(-30.02)"/><rect class="cls-2" x="64.69" y="146.11" width="174.71" height="1.03" transform="translate(-52.97 95.76) rotate(-30.03)"/><rect class="cls-2" x="45.79" y="135.2" width="174.71" height="1.03" transform="translate(-50.04 84.85) rotate(-30.03)"/><polygon class="cls-2" points="38.85 168.93 37.59 168.46 189.81 80.58 190.16 81.57 38.85 168.93"/><polygon class="cls-2" points="132.9 136.15 83.36 107.9 111.05 92.76 111.53 93.64 85.41 107.92 133.39 135.28 132.9 136.15"/><path class="cls-3" d="M215.42,48.29H183V15.88h32.41Zm-31.66-.75h30.91V16.63H183.76Z"/><g class="cls-4"><rect class="cls-3" x="180.07" y="28.87" width="44.78" height="0.75" transform="translate(38.75 151.9) rotate(-45.06)"/><rect class="cls-3" x="178.24" y="26.28" width="44.78" height="0.75" transform="translate(40.03 149.83) rotate(-45.05)"/><rect class="cls-3" x="175.45" y="24.49" width="44.78" height="0.75" transform="translate(40.48 147.32) rotate(-45.05)"/><rect class="cls-3" x="173.62" y="21.9" width="44.78" height="0.75" transform="translate(41.77 145.27) rotate(-45.05)"/><rect class="cls-3" x="170.82" y="20.1" width="44.78" height="0.75" transform="translate(42.23 142.76) rotate(-45.05)"/><rect class="cls-3" x="168.99" y="17.52" width="44.78" height="0.75" transform="translate(43.52 140.71) rotate(-45.05)"/><rect class="cls-3" x="166.2" y="15.72" width="44.78" height="0.75" transform="translate(43.97 138.21) rotate(-45.05)"/><rect class="cls-3" x="193.59" y="42.51" width="44.78" height="0.75" transform="translate(33.05 165.46) rotate(-45.05)"/><rect class="cls-3" x="191.76" y="39.93" width="44.78" height="0.75" transform="translate(34.34 163.4) rotate(-45.05)"/><polygon class="cls-3" points="195.79 54.6 195.26 54.07 226.93 22.41 227.46 22.93 195.79 54.6"/><polygon class="cls-3" points="193.96 52.02 193.43 51.49 225.1 19.82 225.63 20.35 193.96 52.02"/><rect class="cls-3" x="184.34" y="33.75" width="44.78" height="0.75" transform="translate(36.54 156.34) rotate(-45.06)"/><rect class="cls-3" x="182.51" y="31.16" width="44.78" height="0.75" transform="translate(37.83 154.28) rotate(-45.05)"/></g><rect class="cls-3" x="219.43" y="45.65" width="0.75" height="12.25" transform="translate(41.04 189.76) rotate(-50.92)"/><path class="cls-5" d="M133,51.44a19.13,19.13,0,1,0-22.43,18.84l3.3,9.13,3.31-9.13A19.14,19.14,0,0,0,133,51.44Z"/><path d="M113.85,80.88l-3.67-10.16a19.63,19.63,0,1,1,7.35,0Zm0-48.06a18.62,18.62,0,0,0-3.21,37l.28,0,2.93,8.1,2.94-8.1.28,0a18.62,18.62,0,0,0-3.22-37Z"/><path class="cls-6" d="M119.46,60.65l-1.68-4.84h-7.22l-1.68,4.84h-4l6.91-18.95h4.68l6.89,18.95Zm-5.3-16-.08.29c-.09.33-.2.69-.32,1.11s-.9,2.68-2.32,6.8h5.45L115,47.38l-.58-1.83Z"/><path class="cls-7" d="M124,90.05h0l-.72-3h-1.74a15.85,15.85,0,0,0-15.45,0h-1.67l-.8,3h0a3.43,3.43,0,0,0-.14,1c0,3.28,4.62,5.94,10.32,5.94s10.33-2.66,10.33-5.94A3.53,3.53,0,0,0,124,90.05Z"/><path class="cls-6" d="M123.39,87.72c0,3-4.25,5.48-9.5,5.48s-9.51-2.45-9.51-5.48,4.25-5.48,9.51-5.48S123.39,84.7,123.39,87.72Z"/><path class="cls-7" d="M118.69,87.4c0,1.42-2.17,2.57-4.84,2.57S109,88.82,109,87.4s2.16-2.57,4.83-2.57S118.69,86,118.69,87.4Z"/><path d="M118.82,96.7l-.26-1c5.13-1.42,5.12-4.74,5.12-4.77l-.85-3.84,1-.22.87,3.94C124.68,91.12,124.7,95.08,118.82,96.7Z"/><g id="_16" data-name="16"><path class="cls-5" d="M180.7,232.9l-1.32.4a7.76,7.76,0,0,0-1.66-1.26h0c-3.61-2.11-9.06-2.34-12.19-.51l-12.73,7.4-3.86,1.17v3.06h0c.05,1.36,1.05,2.79,3,3.91,3.61,2.11,9.06,2.34,12.19.51l14.49-8.42a3.66,3.66,0,0,0,2.1-3h0Z"/><path class="cls-6" d="M178.6,236.1l-14.49,8.43c-3.13,1.82-8.58,1.59-12.19-.52h0c-3.61-2.1-4-5.29-.87-7.11l14.48-8.43c3.13-1.82,8.58-1.59,12.19.51h0C181.33,231.09,181.72,234.28,178.6,236.1Z"/><path class="cls-5" d="M176.11,229.81c2.88,1.66,2.88,4.35,0,6a11.48,11.48,0,0,1-10.4,0c-2.87-1.66-2.87-4.35,0-6A11.48,11.48,0,0,1,176.11,229.81Z"/></g><path d="M165.07,247.6l-.5-.87,13.78-8s1.85-1.1,1.85-2.6V232.9h1v3.23c0,2.09-2.26,3.41-2.35,3.46Z"/><path class="cls-5" d="M111,211.44h0v-4.27l-8-2.06L85.41,194.93c-3-1.71-7.46-1.9-10-.41l-18,10.42-8.43,2v4.22a1.31,1.31,0,0,0,0,.28v.07h0a4.28,4.28,0,0,0,2.44,3.09L74.47,228c3,1.71,7.45,1.9,10,.42l24.76-14.3A2.94,2.94,0,0,0,111,211.44Z"/><path class="cls-6" d="M109.25,209.57,84.49,223.86c-2.57,1.49-7.06,1.3-10-.41L51.34,210.1c-3-1.72-3.29-4.31-.72-5.79L75.38,190c2.57-1.48,7.06-1.3,10,.42l23.12,13.35C111.5,205.49,111.82,208.08,109.25,209.57Z"/><path class="cls-8" d="M80.28,206.37l-5.51-9.82a22.61,22.61,0,0,0-7.15,2.51c-7,4-7,10.59,0,14.62s18.33,4,25.32,0,7-10.58,0-14.62c-.21-.12-.44-.23-.66-.34Z"/><path class="cls-5" d="M67.62,202.18a22.61,22.61,0,0,1,7.15-2.51l5.51,9.82,12-7.65c.22.11.45.22.66.34,2.81,1.62,4.47,3.65,5,5.75.83-3.13-.83-6.45-5-8.87-.21-.12-.44-.23-.66-.34l-12,7.65-5.51-9.82a22.61,22.61,0,0,0-7.15,2.51c-4.19,2.42-5.85,5.74-5,8.87C63.15,205.83,64.81,203.8,67.62,202.18Z"/><path d="M87.71,227.09l-.5-.87L109,213.64a2.88,2.88,0,0,0,1.49-2.58v-3.89h1v3.89a3.86,3.86,0,0,1-2,3.46Z"/><g id="_18" data-name="18"><path class="cls-5" d="M312.13,182.66h0v-3.2l-5.95-1.54L293,170.31c-2.22-1.28-5.58-1.42-7.5-.31L272,177.8l-6.31,1.49v3.42h0a3.2,3.2,0,0,0,1.83,2.31l17.3,10c2.22,1.28,5.58,1.42,7.5.31l18.53-10.69A2.21,2.21,0,0,0,312.13,182.66Z"/><path class="cls-6" d="M310.84,181.26,292.31,192c-1.92,1.11-5.28,1-7.5-.31l-17.3-10c-2.22-1.28-2.46-3.22-.54-4.33l18.53-10.69c1.92-1.11,5.28-1,7.5.31l17.3,10C312.52,178.21,312.76,180.15,310.84,181.26Z"/><path class="cls-8" d="M305.22,178.61c-2.64-.76-6.91-1.6-9.59-.05l-1.35.78-1.63-.72a2.09,2.09,0,0,0-.82-1.67h0l-3.18-2.86-.24-.21-.06-.06h0a6.69,6.69,0,0,0-.65-.44,9.85,9.85,0,0,0-8.94,0c-2.46,1.42-2.46,3.73,0,5.16q.36.19.75.36h0l.1,0,.44.16,4.92,1.82h0a8,8,0,0,0,2.88.48l1.24.94-1.33.77c-2.68,1.55-1.24,4,.07,5.54a2.88,2.88,0,0,0,3.17.3l7.23-4.17.31-.18,7.2-4.16C306.69,179.88,306.43,179,305.22,178.61Z"/><path class="cls-5" d="M278.76,175.08a9.91,9.91,0,0,1,8.94,0,4.53,4.53,0,0,1,.64.45h0l.06.06.24.21,3.18,2.87h0a2.09,2.09,0,0,1,.82,1.66l1.63.72,1.35-.78c2.67-1.54,6.95-.71,9.58.05a3.12,3.12,0,0,1,.44.17l.08,0c1-.55.69-1.48-.52-1.83-2.63-.76-6.91-1.59-9.58,0l-1.35.78-1.63-.72a2.09,2.09,0,0,0-.82-1.66h0l-3.18-2.86a2.5,2.5,0,0,0-.24-.22l-.06-.05h0a4.53,4.53,0,0,0-.64-.45,9.91,9.91,0,0,0-8.94,0c-1.61.94-2.16,2.24-1.67,3.44A3.71,3.71,0,0,1,278.76,175.08Z"/><path class="cls-5" d="M287.75,184.81l1.33-.77v-1.7s-1.3.76-1.32.76h0a2.52,2.52,0,0,0-1.37,3.18A2.88,2.88,0,0,1,287.75,184.81Z"/></g><path d="M295.68,194l-.5-.86,15.41-8.89a2,2,0,0,0,1-1.86v-2.88h1v2.88a2.94,2.94,0,0,1-1.59,2.75Z"/><path class="cls-3" d="M287.33,231.9H259.05V217.39h28.28Zm-27.53-.75h26.78v-13H259.8Z"/><g class="cls-9"><rect class="cls-3" x="257.51" y="227.18" width="38.93" height="0.75" transform="translate(-79.78 262.5) rotate(-45)"/><rect class="cls-3" x="255.92" y="224.93" width="38.93" height="0.75" transform="translate(-78.66 260.68) rotate(-44.99)"/><rect class="cls-3" x="253.49" y="223.37" width="38.93" height="0.75" transform="translate(-78.26 258.54) rotate(-45)"/><rect class="cls-3" x="251.9" y="221.12" width="38.93" height="0.75" transform="translate(-77.14 256.76) rotate(-45)"/><rect class="cls-3" x="249.47" y="219.56" width="38.93" height="0.75" transform="translate(-76.75 254.58) rotate(-45)"/><rect class="cls-3" x="247.87" y="217.31" width="38.93" height="0.75" transform="translate(-75.62 252.83) rotate(-45.01)"/><rect class="cls-3" x="245.45" y="215.75" width="38.93" height="0.75" transform="translate(-75.23 250.66) rotate(-45.01)"/><rect class="cls-3" x="269.26" y="239.04" width="38.93" height="0.75" transform="translate(-84.72 274.32) rotate(-45.01)"/><rect class="cls-3" x="267.67" y="236.79" width="38.93" height="0.75" transform="translate(-83.6 272.51) rotate(-45)"/><rect class="cls-3" x="265.24" y="235.23" width="38.93" height="0.75" transform="translate(-83.21 270.36) rotate(-45.01)"/><rect class="cls-3" x="263.65" y="232.98" width="38.93" height="0.75" transform="translate(-82.09 268.54) rotate(-45)"/><rect class="cls-3" x="261.22" y="231.42" width="38.93" height="0.75" transform="translate(-81.69 266.37) rotate(-45)"/><rect class="cls-3" x="259.63" y="229.17" width="38.93" height="0.75" transform="translate(-80.57 264.55) rotate(-44.99)"/></g><rect class="cls-3" x="253.79" y="203.47" width="0.75" height="16.22" transform="translate(-76.52 214.99) rotate(-40.37)"/><rect class="cls-3" x="285.51" y="213.11" width="13.37" height="1" transform="translate(-68.69 241.35) rotate(-40.56)"/><polygon class="cls-3" points="298.35 211.64 300.01 206.94 295.11 207.85 298.35 211.64"/><rect class="cls-3" x="74.72" y="132.25" width="13.68" height="1" transform="translate(-66.99 85.77) rotate(-40.88)"/><polygon class="cls-3" points="87.81 130.64 89.45 125.93 84.55 126.87 87.81 130.64"/><g id="_9" data-name="9"><polygon class="cls-6" points="88.57 147.13 75.91 139.6 63.24 147.31 75.91 154.83 88.57 147.13"/><polygon class="cls-8" points="75.91 167.57 75.91 154.83 63.24 147.31 63.24 160.05 75.91 167.57"/><polygon class="cls-5" points="88.57 147.13 88.57 159.87 75.91 167.57 75.91 154.83 88.57 147.13"/><polygon class="cls-6" points="107.04 143.24 94.37 135.72 81.71 143.42 94.37 150.95 107.04 143.24"/><polygon class="cls-8" points="94.37 178.53 94.37 150.95 81.71 143.42 81.71 171 94.37 178.53"/><polygon class="cls-5" points="107.04 143.24 107.04 170.83 94.37 178.53 94.37 150.95 107.04 143.24"/><polygon class="cls-6" points="126.03 130.41 113.37 122.88 100.7 130.59 113.37 138.12 126.03 130.41"/><polygon class="cls-8" points="113.37 189.55 113.37 138.12 100.7 130.59 100.7 182.02 113.37 189.55"/><polygon class="cls-5" points="126.03 130.41 126.03 181.84 113.37 189.55 113.37 138.12 126.03 130.41"/><polygon class="cls-6" points="145.03 153.59 132.37 146.06 119.7 153.77 132.37 161.29 145.03 153.59"/><polygon class="cls-8" points="132.37 200.41 132.37 161.29 119.7 153.77 119.7 192.88 132.37 200.41"/><polygon class="cls-5" points="145.03 153.59 145.03 192.7 132.37 200.41 132.37 161.29 145.03 153.59"/><polygon class="cls-6" points="164.03 180.1 151.36 172.57 138.7 180.28 151.36 187.8 164.03 180.1"/><polygon class="cls-8" points="151.36 211.29 151.36 187.8 138.7 180.28 138.7 203.76 151.36 211.29"/><polygon class="cls-5" points="164.03 180.1 164.03 203.96 151.36 211.29 151.36 187.8 164.03 180.1"/><polygon class="cls-6" points="183.02 201.71 170.36 194.19 157.69 201.89 170.36 209.42 183.02 201.71"/><polygon class="cls-8" points="170.36 222.16 170.36 209.42 157.69 201.89 157.69 214.86 170.36 222.16"/><polygon class="cls-5" points="183.02 201.71 183.02 214.94 170.36 222.16 170.36 209.42 183.02 201.71"/></g><rect x="75.41" y="152.57" width="6.79" height="1" transform="translate(-68.1 63.3) rotate(-31.33)"/><rect x="75.41" y="165.31" width="6.79" height="1" transform="translate(-74.72 65.15) rotate(-31.33)"/><rect x="93.84" y="148.54" width="7.4" height="1" transform="translate(-63.07 72.02) rotate(-31.18)"/><rect x="93.83" y="176.11" width="7.41" height="1" transform="translate(-77.61 76.47) rotate(-31.33)"/><polygon points="126.53 149.91 125.53 149.91 125.53 131.3 113.63 138.54 113.11 137.69 126.53 129.52 126.53 149.91"/><rect x="112.83" y="187.12" width="7.41" height="1" transform="translate(-80.57 87.96) rotate(-31.33)"/><polygon points="145.53 176.42 144.53 176.42 144.53 154.48 132.63 161.72 132.1 160.87 145.53 152.7 145.53 176.42"/><rect x="131.82" y="197.98" width="7.41" height="1" transform="translate(-83.44 99.4) rotate(-31.33)"/><polygon points="164.53 197.92 163.53 197.92 163.53 180.99 151.62 188.23 151.1 187.38 164.53 179.21 164.53 197.92"/><rect x="150.87" y="208.95" width="7.32" height="1" transform="translate(-84.07 105.42) rotate(-30.02)"/><polygon points="170.61 222.6 170.11 221.73 182.52 214.65 182.52 202.6 170.62 209.85 170.1 208.99 183.52 200.82 183.52 215.22 170.61 222.6"/><path class="cls-10" d="M173.27,210.07a1.47,1.47,0,0,1-.67,1.15c-.36.21-.66,0-.66-.38a1.47,1.47,0,0,1,.66-1.15C173,209.48,173.27,209.65,173.27,210.07Z"/><path class="cls-10" d="M176,208.52a1.47,1.47,0,0,1-.67,1.15c-.36.21-.66,0-.66-.38a1.47,1.47,0,0,1,.66-1.15C175.66,207.92,176,208.1,176,208.52Z"/><path class="cls-10" d="M178.64,207a1.47,1.47,0,0,1-.66,1.15c-.37.21-.66,0-.66-.39a1.47,1.47,0,0,1,.66-1.15C178.35,206.37,178.64,206.54,178.64,207Z"/><path class="cls-10" d="M181.33,205.41a1.44,1.44,0,0,1-.66,1.15c-.37.22-.66,0-.66-.38a1.46,1.46,0,0,1,.66-1.15C181,204.82,181.33,205,181.33,205.41Z"/><path class="cls-10" d="M173.27,212.87a1.48,1.48,0,0,1-.67,1.15c-.36.21-.66,0-.66-.39a1.48,1.48,0,0,1,.66-1.15C173,212.27,173.27,212.44,173.27,212.87Z"/><path class="cls-10" d="M176,211.31a1.45,1.45,0,0,1-.67,1.15c-.36.21-.66,0-.66-.38a1.48,1.48,0,0,1,.66-1.15C175.66,210.72,176,210.89,176,211.31Z"/><path class="cls-10" d="M178.64,209.76a1.46,1.46,0,0,1-.66,1.15c-.37.21-.66,0-.66-.38a1.44,1.44,0,0,1,.66-1.15C178.35,209.17,178.64,209.34,178.64,209.76Z"/><path class="cls-10" d="M181.33,208.21a1.46,1.46,0,0,1-.66,1.15c-.37.21-.66,0-.66-.38a1.44,1.44,0,0,1,.66-1.15C181,207.61,181.33,207.79,181.33,208.21Z"/><path class="cls-10" d="M173.27,215.65a1.45,1.45,0,0,1-.67,1.14c-.36.22-.66,0-.66-.38a1.48,1.48,0,0,1,.66-1.15C173,215.05,173.27,215.22,173.27,215.65Z"/><path class="cls-10" d="M176,214.09a1.45,1.45,0,0,1-.67,1.15c-.36.21-.66,0-.66-.38a1.48,1.48,0,0,1,.66-1.15C175.66,213.5,176,213.67,176,214.09Z"/><path class="cls-10" d="M178.64,212.54a1.46,1.46,0,0,1-.66,1.15c-.37.21-.66,0-.66-.38a1.44,1.44,0,0,1,.66-1.15C178.35,212,178.64,212.12,178.64,212.54Z"/><path class="cls-10" d="M181.33,211a1.46,1.46,0,0,1-.66,1.15c-.37.21-.66,0-.66-.39a1.44,1.44,0,0,1,.66-1.14C181,210.39,181.33,210.57,181.33,211Z"/><path class="cls-10" d="M172.6,219.59c-.36.21-.66,0-.66-.38a1.47,1.47,0,0,1,.66-1.15c.37-.22.67,0,.67.38a1.47,1.47,0,0,1-.67,1.15Z"/><path class="cls-10" d="M176,216.89a1.48,1.48,0,0,1-.67,1.15c-.36.21-.66,0-.66-.39a1.5,1.5,0,0,1,.66-1.15C175.66,216.29,176,216.46,176,216.89Z"/><path class="cls-10" d="M178.64,215.33a1.44,1.44,0,0,1-.66,1.15c-.37.22-.66,0-.66-.38A1.46,1.46,0,0,1,178,215C178.35,214.74,178.64,214.91,178.64,215.33Z"/><path class="cls-10" d="M181.33,213.78a1.44,1.44,0,0,1-.66,1.15c-.37.21-.66,0-.66-.38a1.46,1.46,0,0,1,.66-1.15C181,213.19,181.33,213.36,181.33,213.78Z"/><path class="cls-10" d="M154.32,188.75a1.46,1.46,0,0,1-.66,1.15c-.37.21-.66,0-.66-.38a1.44,1.44,0,0,1,.66-1.15C154,188.16,154.32,188.33,154.32,188.75Z"/><path class="cls-10" d="M157,187.2a1.46,1.46,0,0,1-.66,1.15c-.37.21-.66,0-.66-.38a1.44,1.44,0,0,1,.66-1.15C156.72,186.6,157,186.78,157,187.2Z"/><path class="cls-10" d="M159.7,185.65a1.5,1.5,0,0,1-.66,1.15c-.37.21-.67,0-.67-.39a1.48,1.48,0,0,1,.67-1.15C159.4,185.05,159.7,185.22,159.7,185.65Z"/><path class="cls-10" d="M162.39,184.09a1.47,1.47,0,0,1-.66,1.15c-.37.22-.67,0-.67-.38a1.47,1.47,0,0,1,.67-1.15C162.09,183.5,162.39,183.67,162.39,184.09Z"/><path class="cls-10" d="M154.32,191.55a1.44,1.44,0,0,1-.66,1.14c-.37.22-.66,0-.66-.38a1.46,1.46,0,0,1,.66-1.15C154,191,154.32,191.12,154.32,191.55Z"/><path class="cls-10" d="M157,190a1.44,1.44,0,0,1-.66,1.15c-.37.21-.66,0-.66-.38a1.46,1.46,0,0,1,.66-1.15C156.72,189.4,157,189.57,157,190Z"/><path class="cls-10" d="M159.7,188.44a1.48,1.48,0,0,1-.66,1.15c-.37.21-.67,0-.67-.38a1.45,1.45,0,0,1,.67-1.15C159.4,187.85,159.7,188,159.7,188.44Z"/><path class="cls-10" d="M162.39,186.89a1.48,1.48,0,0,1-.66,1.15c-.37.21-.67,0-.67-.39a1.45,1.45,0,0,1,.67-1.14C162.09,186.29,162.39,186.47,162.39,186.89Z"/><path class="cls-10" d="M154.32,194.32a1.44,1.44,0,0,1-.66,1.15c-.37.22-.66,0-.66-.38a1.46,1.46,0,0,1,.66-1.15C154,193.73,154.32,193.9,154.32,194.32Z"/><path class="cls-10" d="M157,192.77a1.44,1.44,0,0,1-.66,1.15c-.37.21-.66,0-.66-.38a1.46,1.46,0,0,1,.66-1.15C156.72,192.18,157,192.35,157,192.77Z"/><path class="cls-10" d="M159.7,191.22a1.48,1.48,0,0,1-.66,1.15c-.37.21-.67,0-.67-.38a1.45,1.45,0,0,1,.67-1.15C159.4,190.63,159.7,190.8,159.7,191.22Z"/><path class="cls-10" d="M162.39,189.67a1.48,1.48,0,0,1-.66,1.15c-.37.21-.67,0-.67-.39a1.48,1.48,0,0,1,.67-1.15C162.09,189.07,162.39,189.24,162.39,189.67Z"/><path class="cls-10" d="M153.66,198.27c-.37.21-.66,0-.66-.38a1.44,1.44,0,0,1,.66-1.15c.37-.22.66,0,.66.38a1.46,1.46,0,0,1-.66,1.15Z"/><path class="cls-10" d="M157,195.57a1.47,1.47,0,0,1-.66,1.15c-.37.21-.66,0-.66-.39a1.47,1.47,0,0,1,.66-1.15C156.72,195,157,195.14,157,195.57Z"/><path class="cls-10" d="M159.7,194a1.47,1.47,0,0,1-.66,1.15c-.37.22-.67,0-.67-.38a1.47,1.47,0,0,1,.67-1.15C159.4,193.42,159.7,193.59,159.7,194Z"/><path class="cls-10" d="M162.39,192.46a1.47,1.47,0,0,1-.66,1.15c-.37.21-.67,0-.67-.38a1.47,1.47,0,0,1,.67-1.15C162.09,191.87,162.39,192,162.39,192.46Z"/><path class="cls-10" d="M135.33,162a1.45,1.45,0,0,1-.67,1.15c-.36.22-.66,0-.66-.38a1.48,1.48,0,0,1,.66-1.15C135,161.41,135.33,161.58,135.33,162Z"/><path class="cls-10" d="M138,160.45a1.45,1.45,0,0,1-.67,1.15c-.36.21-.66,0-.66-.38a1.48,1.48,0,0,1,.66-1.15C137.72,159.86,138,160,138,160.45Z"/><path class="cls-10" d="M140.71,158.9a1.47,1.47,0,0,1-.67,1.15c-.36.21-.66,0-.66-.38a1.47,1.47,0,0,1,.66-1.15C140.41,158.31,140.71,158.48,140.71,158.9Z"/><path class="cls-10" d="M143.39,157.35a1.46,1.46,0,0,1-.66,1.15c-.37.21-.66,0-.66-.39a1.47,1.47,0,0,1,.66-1.15C143.1,156.75,143.39,156.92,143.39,157.35Z"/><path class="cls-10" d="M135.33,164.8a1.47,1.47,0,0,1-.67,1.15c-.36.21-.66,0-.66-.39a1.47,1.47,0,0,1,.66-1.14C135,164.2,135.33,164.38,135.33,164.8Z"/><path class="cls-10" d="M138,163.25a1.48,1.48,0,0,1-.67,1.15c-.36.21-.66,0-.66-.39a1.48,1.48,0,0,1,.66-1.15C137.72,162.65,138,162.82,138,163.25Z"/><path class="cls-10" d="M140.71,161.69a1.45,1.45,0,0,1-.67,1.15c-.36.21-.66,0-.66-.38a1.48,1.48,0,0,1,.66-1.15C140.41,161.1,140.71,161.27,140.71,161.69Z"/><path class="cls-10" d="M143.39,160.14a1.46,1.46,0,0,1-.66,1.15c-.37.21-.66,0-.66-.38a1.44,1.44,0,0,1,.66-1.15C143.1,159.55,143.39,159.72,143.39,160.14Z"/><path class="cls-10" d="M135.33,167.58a1.47,1.47,0,0,1-.67,1.15c-.36.21-.66,0-.66-.39a1.5,1.5,0,0,1,.66-1.15C135,167,135.33,167.15,135.33,167.58Z"/><path class="cls-10" d="M138,166a1.45,1.45,0,0,1-.67,1.14c-.36.22-.66,0-.66-.38a1.48,1.48,0,0,1,.66-1.15C137.72,165.43,138,165.6,138,166Z"/><path class="cls-10" d="M140.71,164.47a1.45,1.45,0,0,1-.67,1.15c-.36.21-.66,0-.66-.38a1.48,1.48,0,0,1,.66-1.15C140.41,163.88,140.71,164.05,140.71,164.47Z"/><path class="cls-10" d="M143.39,162.92a1.46,1.46,0,0,1-.66,1.15c-.37.21-.66,0-.66-.38a1.44,1.44,0,0,1,.66-1.15C143.1,162.33,143.39,162.5,143.39,162.92Z"/><path class="cls-10" d="M134.66,171.52c-.36.21-.66,0-.66-.38a1.48,1.48,0,0,1,.66-1.15c.37-.21.67,0,.67.38a1.45,1.45,0,0,1-.67,1.15Z"/><path class="cls-10" d="M138,168.82a1.47,1.47,0,0,1-.67,1.15c-.36.21-.66,0-.66-.38a1.47,1.47,0,0,1,.66-1.15C137.72,168.23,138,168.4,138,168.82Z"/><path class="cls-10" d="M140.71,167.27a1.47,1.47,0,0,1-.67,1.15c-.36.21-.66,0-.66-.39a1.5,1.5,0,0,1,.66-1.15C140.41,166.67,140.71,166.84,140.71,167.27Z"/><path class="cls-10" d="M143.39,165.72a1.44,1.44,0,0,1-.66,1.14c-.37.22-.66,0-.66-.38a1.46,1.46,0,0,1,.66-1.15C143.1,165.12,143.39,165.29,143.39,165.72Z"/><path class="cls-10" d="M116.33,139.07a1.48,1.48,0,0,1-.66,1.15c-.37.21-.67,0-.67-.38a1.45,1.45,0,0,1,.67-1.15C116,138.48,116.33,138.65,116.33,139.07Z"/><path class="cls-10" d="M119,137.52a1.48,1.48,0,0,1-.66,1.15c-.37.21-.67,0-.67-.38a1.45,1.45,0,0,1,.67-1.15C118.72,136.92,119,137.1,119,137.52Z"/><path class="cls-10" d="M121.71,136a1.48,1.48,0,0,1-.67,1.15c-.36.21-.66,0-.66-.39a1.5,1.5,0,0,1,.66-1.15C121.41,135.37,121.71,135.54,121.71,136Z"/><path class="cls-10" d="M124.4,134.41a1.45,1.45,0,0,1-.67,1.15c-.36.22-.66,0-.66-.38a1.48,1.48,0,0,1,.66-1.15C124.1,133.82,124.4,134,124.4,134.41Z"/><path class="cls-10" d="M116.33,141.87a1.5,1.5,0,0,1-.66,1.15c-.37.21-.67,0-.67-.39a1.47,1.47,0,0,1,.67-1.15C116,141.27,116.33,141.44,116.33,141.87Z"/><path class="cls-10" d="M119,140.31a1.47,1.47,0,0,1-.66,1.15c-.37.21-.67,0-.67-.38a1.47,1.47,0,0,1,.67-1.15C118.72,139.72,119,139.89,119,140.31Z"/><path class="cls-10" d="M121.71,138.76a1.47,1.47,0,0,1-.67,1.15c-.36.21-.66,0-.66-.38a1.47,1.47,0,0,1,.66-1.15C121.41,138.17,121.71,138.34,121.71,138.76Z"/><path class="cls-10" d="M124.4,137.21a1.47,1.47,0,0,1-.67,1.15c-.36.21-.66,0-.66-.39a1.47,1.47,0,0,1,.66-1.14C124.1,136.61,124.4,136.79,124.4,137.21Z"/><path class="cls-10" d="M116.33,144.65a1.47,1.47,0,0,1-.66,1.14c-.37.22-.67,0-.67-.38a1.47,1.47,0,0,1,.67-1.15C116,144.05,116.33,144.22,116.33,144.65Z"/><path class="cls-10" d="M119,143.09a1.47,1.47,0,0,1-.66,1.15c-.37.21-.67,0-.67-.38a1.47,1.47,0,0,1,.67-1.15C118.72,142.5,119,142.67,119,143.09Z"/><path class="cls-10" d="M121.71,141.54a1.47,1.47,0,0,1-.67,1.15c-.36.21-.66,0-.66-.38a1.47,1.47,0,0,1,.66-1.15C121.41,141,121.71,141.12,121.71,141.54Z"/><path class="cls-10" d="M124.4,140a1.47,1.47,0,0,1-.67,1.15c-.36.21-.66,0-.66-.39a1.5,1.5,0,0,1,.66-1.15C124.1,139.39,124.4,139.56,124.4,140Z"/><path class="cls-10" d="M115.67,148.59c-.37.21-.67,0-.67-.38a1.45,1.45,0,0,1,.67-1.15c.36-.22.66,0,.66.38a1.48,1.48,0,0,1-.66,1.15Z"/><path class="cls-10" d="M119,145.89a1.5,1.5,0,0,1-.66,1.15c-.37.21-.67,0-.67-.39a1.48,1.48,0,0,1,.67-1.15C118.72,145.29,119,145.46,119,145.89Z"/><path class="cls-10" d="M121.71,144.33a1.45,1.45,0,0,1-.67,1.15c-.36.22-.66,0-.66-.38A1.48,1.48,0,0,1,121,144C121.41,143.74,121.71,143.91,121.71,144.33Z"/><path class="cls-10" d="M124.4,142.78a1.45,1.45,0,0,1-.67,1.15c-.36.21-.66,0-.66-.38a1.48,1.48,0,0,1,.66-1.15C124.1,142.19,124.4,142.36,124.4,142.78Z"/><path class="cls-10" d="M97.07,152.51a1.47,1.47,0,0,1-.66,1.15c-.37.21-.67,0-.67-.38a1.47,1.47,0,0,1,.67-1.15C96.77,151.92,97.07,152.09,97.07,152.51Z"/><path class="cls-10" d="M99.76,151a1.47,1.47,0,0,1-.67,1.15c-.36.21-.66,0-.66-.38a1.47,1.47,0,0,1,.66-1.15C99.46,150.37,99.76,150.54,99.76,151Z"/><path class="cls-10" d="M97.07,155.31a1.5,1.5,0,0,1-.66,1.15c-.37.21-.67,0-.67-.39a1.48,1.48,0,0,1,.67-1.15C96.77,154.71,97.07,154.88,97.07,155.31Z"/><path class="cls-10" d="M99.76,153.75a1.45,1.45,0,0,1-.67,1.15c-.36.22-.66,0-.66-.38a1.48,1.48,0,0,1,.66-1.15C99.46,153.16,99.76,153.33,99.76,153.75Z"/><path class="cls-10" d="M97.07,158.09a1.5,1.5,0,0,1-.66,1.15c-.37.21-.67,0-.67-.39a1.47,1.47,0,0,1,.67-1.15C96.77,157.49,97.07,157.66,97.07,158.09Z"/><path class="cls-10" d="M99.76,156.53a1.45,1.45,0,0,1-.67,1.15c-.36.21-.66,0-.66-.38a1.48,1.48,0,0,1,.66-1.15C99.46,155.94,99.76,156.11,99.76,156.53Z"/><path class="cls-10" d="M96.41,162c-.37.21-.67,0-.67-.38a1.45,1.45,0,0,1,.67-1.15c.36-.21.66,0,.66.38a1.48,1.48,0,0,1-.66,1.15Z"/><path class="cls-10" d="M99.76,159.33a1.47,1.47,0,0,1-.67,1.15c-.36.21-.66,0-.66-.39a1.5,1.5,0,0,1,.66-1.15C99.46,158.73,99.76,158.9,99.76,159.33Z"/><path class="cls-10" d="M78.35,155.53a1.47,1.47,0,0,1-.66,1.15c-.37.22-.67,0-.67-.38a1.47,1.47,0,0,1,.67-1.15C78.05,154.94,78.35,155.11,78.35,155.53Z"/><path class="cls-10" d="M81,154a1.47,1.47,0,0,1-.66,1.15c-.37.21-.67,0-.67-.38a1.47,1.47,0,0,1,.67-1.15C80.74,153.39,81,153.56,81,154Z"/><path class="cls-10" d="M78.35,158.33a1.48,1.48,0,0,1-.66,1.15c-.37.21-.67,0-.67-.38a1.45,1.45,0,0,1,.67-1.15C78.05,157.73,78.35,157.91,78.35,158.33Z"/><path class="cls-10" d="M81,156.78a1.5,1.5,0,0,1-.66,1.15c-.37.21-.67,0-.67-.39a1.48,1.48,0,0,1,.67-1.15C80.74,156.18,81,156.35,81,156.78Z"/><path class="cls-10" d="M78.35,161.11a1.48,1.48,0,0,1-.66,1.15c-.37.21-.67,0-.67-.39a1.45,1.45,0,0,1,.67-1.14C78.05,160.51,78.35,160.69,78.35,161.11Z"/><path class="cls-10" d="M81,159.56a1.5,1.5,0,0,1-.66,1.15c-.37.21-.67,0-.67-.39a1.47,1.47,0,0,1,.67-1.15C80.74,159,81,159.13,81,159.56Z"/><path class="cls-10" d="M77.69,165.05c-.37.21-.67,0-.67-.38a1.47,1.47,0,0,1,.67-1.15c.36-.21.66,0,.66.38a1.47,1.47,0,0,1-.66,1.15Z"/><path class="cls-10" d="M81,162.35a1.48,1.48,0,0,1-.66,1.15c-.37.21-.67,0-.67-.38a1.45,1.45,0,0,1,.67-1.15C80.74,161.76,81,161.93,81,162.35Z"/><g id="_9-2" data-name="9"><polygon class="cls-6" points="221.29 86.31 205.74 77.06 190.19 86.52 205.74 95.77 221.29 86.31"/><polygon class="cls-8" points="205.74 111.41 205.74 95.77 190.19 86.52 190.19 102.17 205.74 111.41"/><polygon class="cls-5" points="221.29 86.31 221.29 101.95 205.74 111.41 205.74 95.77 221.29 86.31"/><polygon class="cls-6" points="243.96 62.54 228.41 53.29 212.86 62.76 228.41 72 243.96 62.54"/><polygon class="cls-8" points="228.41 124.87 228.41 72 212.86 62.76 212.86 115.63 228.41 124.87"/><polygon class="cls-5" points="243.96 62.54 243.96 115.41 228.41 124.87 228.41 72 243.96 62.54"/><polygon class="cls-6" points="267.29 46.78 251.74 37.54 236.19 47 251.74 56.24 267.29 46.78"/><polygon class="cls-8" points="251.74 138.39 251.74 56.24 236.19 47 236.19 129.15 251.74 138.39"/><polygon class="cls-5" points="267.29 46.78 267.29 128.93 251.74 138.39 251.74 56.24 267.29 46.78"/><polygon class="cls-6" points="290.61 94.24 275.06 85 259.51 94.46 275.06 103.7 290.61 94.24"/><polygon class="cls-8" points="275.06 151.73 275.06 103.7 259.51 94.46 259.51 142.48 275.06 151.73"/><polygon class="cls-5" points="290.61 94.24 290.61 142.26 275.06 151.73 275.06 103.7 290.61 94.24"/><polygon class="cls-6" points="313.94 126.79 298.39 117.55 282.84 127.01 298.39 136.25 313.94 126.79"/><polygon class="cls-8" points="298.39 165.08 298.39 136.25 282.84 127.01 282.84 155.84 298.39 165.08"/><polygon class="cls-5" points="313.94 126.79 313.94 155.62 298.39 165.08 298.39 136.25 313.94 126.79"/><polygon class="cls-6" points="337.26 153.33 321.71 144.09 306.17 153.55 321.71 162.79 337.26 153.33"/><polygon class="cls-8" points="321.71 178.44 321.71 162.79 306.17 153.55 306.16 169.47 321.71 178.44"/><polygon class="cls-5" points="337.26 153.33 337.26 169.56 321.71 178.44 321.71 162.79 337.26 153.33"/></g><polygon points="290.16 122.22 290.15 95.06 275.37 104.06 274.85 103.21 291.15 93.29 291.16 122.22 290.16 122.22"/><polygon points="267.83 89.66 266.83 89.66 266.83 47.61 252.04 56.61 251.52 55.75 267.83 45.83 267.83 89.66"/><polygon points="314.48 148.76 313.48 148.76 313.48 127.62 298.69 136.62 298.17 135.76 314.48 125.84 314.48 148.76"/><rect x="274.44" y="148.8" width="9.1" height="1" transform="translate(-36.95 166.85) rotate(-31.33)"/><rect x="297.76" y="162.15" width="9.11" height="1" transform="translate(-40.46 181.46) rotate(-31.42)"/><polygon points="322 178.81 321.51 177.94 336.81 169.21 336.81 154.16 322.02 163.16 321.5 162.3 337.81 152.38 337.81 169.79 322 178.81"/><rect x="227.79" y="69.07" width="9.1" height="1" transform="translate(-2.32 130.86) rotate(-31.31)"/><rect class="cls-3" x="275.86" y="70.82" width="32.43" height="1" transform="translate(23.16 205.77) rotate(-40.29)"/><polygon class="cls-3" points="305.5 63.21 307.18 58.52 302.27 59.41 305.5 63.21"/><path class="cls-10" d="M278.15,104.74a1.48,1.48,0,0,1-.67,1.15c-.36.21-.66,0-.66-.39a1.48,1.48,0,0,1,.66-1.15C277.85,104.14,278.15,104.31,278.15,104.74Z"/><path class="cls-10" d="M280.84,103.18a1.45,1.45,0,0,1-.67,1.15c-.36.21-.66,0-.66-.38a1.48,1.48,0,0,1,.66-1.15C280.54,102.59,280.84,102.76,280.84,103.18Z"/><path class="cls-10" d="M283.53,101.63a1.47,1.47,0,0,1-.67,1.15c-.36.21-.66,0-.66-.38a1.47,1.47,0,0,1,.66-1.15C283.23,101,283.53,101.21,283.53,101.63Z"/><path class="cls-10" d="M286.21,100.08a1.46,1.46,0,0,1-.66,1.15c-.37.21-.66,0-.66-.38a1.44,1.44,0,0,1,.66-1.15C285.92,99.48,286.21,99.66,286.21,100.08Z"/><path class="cls-10" d="M288.9,98.53a1.47,1.47,0,0,1-.66,1.15c-.37.21-.66,0-.66-.39a1.47,1.47,0,0,1,.66-1.15C288.61,97.93,288.9,98.1,288.9,98.53Z"/><path class="cls-10" d="M278.15,107.53a1.47,1.47,0,0,1-.67,1.15c-.36.21-.66,0-.66-.38a1.47,1.47,0,0,1,.66-1.15C277.85,106.94,278.15,107.11,278.15,107.53Z"/><path class="cls-10" d="M280.84,106a1.47,1.47,0,0,1-.67,1.15c-.36.21-.66,0-.66-.39a1.47,1.47,0,0,1,.66-1.14C280.54,105.38,280.84,105.56,280.84,106Z"/><path class="cls-10" d="M283.53,104.43a1.48,1.48,0,0,1-.67,1.15c-.36.21-.66,0-.66-.39a1.48,1.48,0,0,1,.66-1.15C283.23,103.83,283.53,104,283.53,104.43Z"/><path class="cls-10" d="M286.21,102.87a1.44,1.44,0,0,1-.66,1.15c-.37.21-.66,0-.66-.38a1.46,1.46,0,0,1,.66-1.15C285.92,102.28,286.21,102.45,286.21,102.87Z"/><path class="cls-10" d="M288.9,101.32a1.46,1.46,0,0,1-.66,1.15c-.37.21-.66,0-.66-.38a1.44,1.44,0,0,1,.66-1.15C288.61,100.73,288.9,100.9,288.9,101.32Z"/><path class="cls-10" d="M278.15,110.31a1.47,1.47,0,0,1-.67,1.15c-.36.21-.66,0-.66-.38a1.47,1.47,0,0,1,.66-1.15C277.85,109.72,278.15,109.89,278.15,110.31Z"/><path class="cls-10" d="M280.84,108.76a1.47,1.47,0,0,1-.67,1.15c-.36.21-.66,0-.66-.39a1.5,1.5,0,0,1,.66-1.15C280.54,108.16,280.84,108.33,280.84,108.76Z"/><path class="cls-10" d="M283.53,107.21a1.45,1.45,0,0,1-.67,1.14c-.36.22-.66,0-.66-.38a1.48,1.48,0,0,1,.66-1.15C283.23,106.61,283.53,106.78,283.53,107.21Z"/><path class="cls-10" d="M286.21,105.65a1.44,1.44,0,0,1-.66,1.15c-.37.21-.66,0-.66-.38a1.46,1.46,0,0,1,.66-1.15C285.92,105.06,286.21,105.23,286.21,105.65Z"/><path class="cls-10" d="M288.9,104.1a1.46,1.46,0,0,1-.66,1.15c-.37.21-.66,0-.66-.38a1.44,1.44,0,0,1,.66-1.15C288.61,103.51,288.9,103.68,288.9,104.1Z"/><path class="cls-10" d="M278.15,113.1a1.45,1.45,0,0,1-.67,1.15c-.36.21-.66,0-.66-.38a1.48,1.48,0,0,1,.66-1.15C277.85,112.51,278.15,112.68,278.15,113.1Z"/><path class="cls-10" d="M280.84,111.55a1.47,1.47,0,0,1-.67,1.15c-.36.21-.66,0-.66-.38a1.47,1.47,0,0,1,.66-1.15C280.54,111,280.84,111.13,280.84,111.55Z"/><path class="cls-10" d="M283.53,110a1.47,1.47,0,0,1-.67,1.15c-.36.21-.66,0-.66-.38a1.47,1.47,0,0,1,.66-1.15C283.23,109.4,283.53,109.58,283.53,110Z"/><path class="cls-10" d="M286.21,108.45a1.47,1.47,0,0,1-.66,1.15c-.37.21-.66,0-.66-.39a1.47,1.47,0,0,1,.66-1.15C285.92,107.85,286.21,108,286.21,108.45Z"/><path class="cls-10" d="M288.9,106.89a1.44,1.44,0,0,1-.66,1.15c-.37.22-.66,0-.66-.38a1.46,1.46,0,0,1,.66-1.15C288.61,106.3,288.9,106.47,288.9,106.89Z"/><path class="cls-10" d="M278.15,115.9a1.47,1.47,0,0,1-.67,1.15c-.36.21-.66,0-.66-.39a1.47,1.47,0,0,1,.66-1.14C277.85,115.3,278.15,115.48,278.15,115.9Z"/><path class="cls-10" d="M280.84,114.35a1.48,1.48,0,0,1-.67,1.15c-.36.21-.66,0-.66-.39a1.48,1.48,0,0,1,.66-1.15C280.54,113.75,280.84,113.92,280.84,114.35Z"/><path class="cls-10" d="M283.53,112.79a1.45,1.45,0,0,1-.67,1.15c-.36.21-.66,0-.66-.38a1.48,1.48,0,0,1,.66-1.15C283.23,112.2,283.53,112.37,283.53,112.79Z"/><path class="cls-10" d="M286.21,111.24a1.46,1.46,0,0,1-.66,1.15c-.37.21-.66,0-.66-.38a1.44,1.44,0,0,1,.66-1.15C285.92,110.65,286.21,110.82,286.21,111.24Z"/><path class="cls-10" d="M288.9,109.69a1.46,1.46,0,0,1-.66,1.15c-.37.21-.66,0-.66-.38a1.44,1.44,0,0,1,.66-1.15C288.61,109.09,288.9,109.27,288.9,109.69Z"/><path class="cls-10" d="M254.61,57.62a1.47,1.47,0,0,1-.67,1.15c-.36.21-.66,0-.66-.38a1.47,1.47,0,0,1,.66-1.15C254.31,57,254.61,57.2,254.61,57.62Z"/><path class="cls-10" d="M257.3,56.07a1.47,1.47,0,0,1-.67,1.15c-.36.21-.66,0-.66-.39a1.5,1.5,0,0,1,.66-1.15C257,55.47,257.3,55.64,257.3,56.07Z"/><path class="cls-10" d="M260,54.52a1.44,1.44,0,0,1-.66,1.14c-.37.22-.66,0-.66-.38a1.46,1.46,0,0,1,.66-1.15C259.69,53.92,260,54.09,260,54.52Z"/><path class="cls-10" d="M262.67,53a1.44,1.44,0,0,1-.66,1.15c-.37.21-.66,0-.66-.38a1.46,1.46,0,0,1,.66-1.15C262.38,52.37,262.67,52.54,262.67,53Z"/><path class="cls-10" d="M265.36,51.41a1.48,1.48,0,0,1-.66,1.15c-.37.21-.66,0-.66-.38A1.44,1.44,0,0,1,264.7,51C265.06,50.82,265.36,51,265.36,51.41Z"/><path class="cls-10" d="M254.61,60.41a1.45,1.45,0,0,1-.67,1.15c-.36.21-.66,0-.66-.38a1.48,1.48,0,0,1,.66-1.15C254.31,59.82,254.61,60,254.61,60.41Z"/><path class="cls-10" d="M257.3,58.86a1.47,1.47,0,0,1-.67,1.15c-.36.21-.66,0-.66-.38a1.47,1.47,0,0,1,.66-1.15C257,58.27,257.3,58.44,257.3,58.86Z"/><path class="cls-10" d="M260,57.31a1.46,1.46,0,0,1-.66,1.15c-.37.21-.66,0-.66-.38a1.44,1.44,0,0,1,.66-1.15C259.69,56.71,260,56.89,260,57.31Z"/><path class="cls-10" d="M262.67,55.76a1.47,1.47,0,0,1-.66,1.15c-.37.21-.66,0-.66-.39a1.47,1.47,0,0,1,.66-1.15C262.38,55.16,262.67,55.33,262.67,55.76Z"/><path class="cls-10" d="M265.36,54.2a1.47,1.47,0,0,1-.66,1.15c-.37.22-.66,0-.66-.38a1.46,1.46,0,0,1,.66-1.15C265.06,53.61,265.36,53.78,265.36,54.2Z"/><path class="cls-10" d="M254.61,63.19a1.45,1.45,0,0,1-.67,1.15c-.36.21-.66,0-.66-.38a1.48,1.48,0,0,1,.66-1.15C254.31,62.6,254.61,62.77,254.61,63.19Z"/><path class="cls-10" d="M257.3,61.64a1.47,1.47,0,0,1-.67,1.15c-.36.21-.66,0-.66-.38a1.47,1.47,0,0,1,.66-1.15C257,61.05,257.3,61.22,257.3,61.64Z"/><path class="cls-10" d="M260,60.09a1.46,1.46,0,0,1-.66,1.15c-.37.21-.66,0-.66-.39a1.44,1.44,0,0,1,.66-1.14C259.69,59.49,260,59.67,260,60.09Z"/><path class="cls-10" d="M262.67,58.54a1.47,1.47,0,0,1-.66,1.15c-.37.21-.66,0-.66-.39a1.46,1.46,0,0,1,.66-1.15C262.38,57.94,262.67,58.11,262.67,58.54Z"/><path class="cls-10" d="M265.36,57a1.47,1.47,0,0,1-.66,1.15c-.37.21-.66,0-.66-.38a1.46,1.46,0,0,1,.66-1.15C265.06,56.39,265.36,56.56,265.36,57Z"/><path class="cls-10" d="M254.61,66a1.47,1.47,0,0,1-.67,1.15c-.36.21-.66,0-.66-.39a1.5,1.5,0,0,1,.66-1.15C254.31,65.39,254.61,65.56,254.61,66Z"/><path class="cls-10" d="M257.3,64.44a1.45,1.45,0,0,1-.67,1.14c-.36.22-.66,0-.66-.38a1.48,1.48,0,0,1,.66-1.15C257,63.84,257.3,64,257.3,64.44Z"/><path class="cls-10" d="M260,62.88a1.44,1.44,0,0,1-.66,1.15c-.37.21-.66,0-.66-.38a1.46,1.46,0,0,1,.66-1.15C259.69,62.29,260,62.46,260,62.88Z"/><path class="cls-10" d="M262.67,61.33a1.46,1.46,0,0,1-.66,1.15c-.37.21-.66,0-.66-.38A1.44,1.44,0,0,1,262,61C262.38,60.74,262.67,60.91,262.67,61.33Z"/><path class="cls-10" d="M265.36,59.78a1.48,1.48,0,0,1-.66,1.15c-.37.21-.66,0-.66-.39a1.44,1.44,0,0,1,.66-1.14C265.06,59.18,265.36,59.36,265.36,59.78Z"/><path class="cls-10" d="M254.61,68.78a1.45,1.45,0,0,1-.67,1.15c-.36.21-.66,0-.66-.38a1.47,1.47,0,0,1,.66-1.15C254.31,68.19,254.61,68.36,254.61,68.78Z"/><path class="cls-10" d="M257.3,67.23a1.47,1.47,0,0,1-.67,1.15c-.36.21-.66,0-.66-.38a1.47,1.47,0,0,1,.66-1.15C257,66.63,257.3,66.81,257.3,67.23Z"/><path class="cls-10" d="M260,65.68a1.47,1.47,0,0,1-.66,1.15c-.37.21-.66,0-.66-.39a1.47,1.47,0,0,1,.66-1.15C259.69,65.08,260,65.25,260,65.68Z"/><path class="cls-10" d="M262.67,64.12a1.44,1.44,0,0,1-.66,1.15c-.37.22-.66,0-.66-.38a1.46,1.46,0,0,1,.66-1.15C262.38,63.53,262.67,63.7,262.67,64.12Z"/><path class="cls-10" d="M265.36,62.57a1.47,1.47,0,0,1-.66,1.15c-.37.21-.66,0-.66-.38a1.46,1.46,0,0,1,.66-1.15C265.06,62,265.36,62.15,265.36,62.57Z"/><path class="cls-10" d="M232.14,72.75a1.45,1.45,0,0,1-.67,1.15c-.36.21-.66,0-.66-.38a1.47,1.47,0,0,1,.66-1.15C231.84,72.16,232.14,72.33,232.14,72.75Z"/><path class="cls-10" d="M234.83,71.2a1.47,1.47,0,0,1-.67,1.15c-.36.21-.66,0-.66-.38a1.47,1.47,0,0,1,.66-1.15C234.53,70.6,234.83,70.78,234.83,71.2Z"/><path class="cls-10" d="M232.14,75.55a1.48,1.48,0,0,1-.67,1.15c-.36.21-.66,0-.66-.39a1.48,1.48,0,0,1,.66-1.15C231.84,75,232.14,75.12,232.14,75.55Z"/><path class="cls-10" d="M234.83,74a1.45,1.45,0,0,1-.67,1.15c-.36.21-.66,0-.66-.38a1.48,1.48,0,0,1,.66-1.15C234.53,73.4,234.83,73.57,234.83,74Z"/><path class="cls-10" d="M232.14,78.33a1.45,1.45,0,0,1-.67,1.14c-.36.22-.66,0-.66-.38a1.48,1.48,0,0,1,.66-1.15C231.84,77.73,232.14,77.9,232.14,78.33Z"/><path class="cls-10" d="M234.83,76.77a1.45,1.45,0,0,1-.67,1.15c-.36.21-.66,0-.66-.38a1.48,1.48,0,0,1,.66-1.15C234.53,76.18,234.83,76.35,234.83,76.77Z"/><path class="cls-10" d="M232.14,81.12a1.47,1.47,0,0,1-.67,1.15c-.36.21-.66,0-.66-.38a1.47,1.47,0,0,1,.66-1.15C231.84,80.53,232.14,80.7,232.14,81.12Z"/><path class="cls-10" d="M234.83,79.57a1.47,1.47,0,0,1-.67,1.15c-.36.21-.66,0-.66-.39a1.5,1.5,0,0,1,.66-1.15C234.53,79,234.83,79.14,234.83,79.57Z"/><path class="cls-10" d="M232.14,83.91a1.45,1.45,0,0,1-.67,1.15c-.36.21-.66,0-.66-.38a1.48,1.48,0,0,1,.66-1.15C231.84,83.32,232.14,83.49,232.14,83.91Z"/><path class="cls-10" d="M234.83,82.36a1.47,1.47,0,0,1-.67,1.15c-.36.21-.66,0-.66-.38a1.47,1.47,0,0,1,.66-1.15C234.53,81.77,234.83,81.94,234.83,82.36Z"/><path class="cls-10" d="M301.45,137.6a1.48,1.48,0,0,1-.66,1.15c-.37.21-.67,0-.67-.38a1.45,1.45,0,0,1,.67-1.15C301.15,137,301.45,137.18,301.45,137.6Z"/><path class="cls-10" d="M304.14,136.05a1.48,1.48,0,0,1-.66,1.15c-.37.21-.67,0-.67-.38a1.45,1.45,0,0,1,.67-1.15C303.84,135.45,304.14,135.63,304.14,136.05Z"/><path class="cls-10" d="M306.83,134.5a1.48,1.48,0,0,1-.67,1.15c-.36.21-.66,0-.66-.39a1.5,1.5,0,0,1,.66-1.15C306.53,133.9,306.83,134.07,306.83,134.5Z"/><path class="cls-10" d="M309.52,132.94a1.45,1.45,0,0,1-.67,1.15c-.36.22-.66,0-.66-.38a1.48,1.48,0,0,1,.66-1.15C309.22,132.35,309.52,132.52,309.52,132.94Z"/><path class="cls-10" d="M312.21,131.39a1.45,1.45,0,0,1-.67,1.15c-.36.21-.66,0-.66-.38a1.47,1.47,0,0,1,.66-1.15C311.91,130.8,312.21,131,312.21,131.39Z"/><path class="cls-10" d="M301.45,140.4a1.47,1.47,0,0,1-.66,1.14c-.37.22-.67,0-.67-.38a1.47,1.47,0,0,1,.67-1.15C301.15,139.8,301.45,140,301.45,140.4Z"/><path class="cls-10" d="M304.14,138.84a1.47,1.47,0,0,1-.66,1.15c-.37.21-.67,0-.67-.38a1.47,1.47,0,0,1,.67-1.15C303.84,138.25,304.14,138.42,304.14,138.84Z"/><path class="cls-10" d="M306.83,137.29a1.47,1.47,0,0,1-.67,1.15c-.36.21-.66,0-.66-.38a1.47,1.47,0,0,1,.66-1.15C306.53,136.7,306.83,136.87,306.83,137.29Z"/><path class="cls-10" d="M309.52,135.74a1.47,1.47,0,0,1-.67,1.15c-.36.21-.66,0-.66-.39a1.47,1.47,0,0,1,.66-1.14C309.22,135.14,309.52,135.32,309.52,135.74Z"/><path class="cls-10" d="M312.21,134.19a1.48,1.48,0,0,1-.67,1.15c-.36.21-.66,0-.66-.39a1.48,1.48,0,0,1,.66-1.15C311.91,133.59,312.21,133.76,312.21,134.19Z"/><path class="cls-10" d="M301.45,143.17a1.47,1.47,0,0,1-.66,1.15c-.37.22-.67,0-.67-.38a1.47,1.47,0,0,1,.67-1.15C301.15,142.58,301.45,142.75,301.45,143.17Z"/><path class="cls-10" d="M304.14,141.62a1.47,1.47,0,0,1-.66,1.15c-.37.21-.67,0-.67-.38a1.47,1.47,0,0,1,.67-1.15C303.84,141,304.14,141.2,304.14,141.62Z"/><path class="cls-10" d="M306.83,140.07a1.47,1.47,0,0,1-.67,1.15c-.36.21-.66,0-.66-.38a1.47,1.47,0,0,1,.66-1.15C306.53,139.48,306.83,139.65,306.83,140.07Z"/><path class="cls-10" d="M309.52,138.52a1.47,1.47,0,0,1-.67,1.15c-.36.21-.66,0-.66-.39a1.5,1.5,0,0,1,.66-1.15C309.22,137.92,309.52,138.09,309.52,138.52Z"/><path class="cls-10" d="M312.21,137a1.45,1.45,0,0,1-.67,1.14c-.36.22-.66,0-.66-.38a1.48,1.48,0,0,1,.66-1.15C311.91,136.37,312.21,136.54,312.21,137Z"/><path class="cls-10" d="M301.45,146a1.48,1.48,0,0,1-.66,1.15c-.37.21-.67,0-.67-.38a1.45,1.45,0,0,1,.67-1.15C301.15,145.37,301.45,145.55,301.45,146Z"/><path class="cls-10" d="M304.14,144.42a1.5,1.5,0,0,1-.66,1.15c-.37.21-.67,0-.67-.39a1.48,1.48,0,0,1,.67-1.15C303.84,143.82,304.14,144,304.14,144.42Z"/><path class="cls-10" d="M306.83,142.86a1.45,1.45,0,0,1-.67,1.15c-.36.22-.66,0-.66-.38a1.48,1.48,0,0,1,.66-1.15C306.53,142.27,306.83,142.44,306.83,142.86Z"/><path class="cls-10" d="M309.52,141.31a1.45,1.45,0,0,1-.67,1.15c-.36.21-.66,0-.66-.38a1.48,1.48,0,0,1,.66-1.15C309.22,140.72,309.52,140.89,309.52,141.31Z"/><path class="cls-10" d="M312.21,139.76a1.47,1.47,0,0,1-.67,1.15c-.36.21-.66,0-.66-.38a1.47,1.47,0,0,1,.66-1.15C311.91,139.17,312.21,139.34,312.21,139.76Z"/><path class="cls-10" d="M301.45,148.76a1.47,1.47,0,0,1-.66,1.15c-.37.21-.67,0-.67-.38a1.47,1.47,0,0,1,.67-1.15C301.15,148.17,301.45,148.34,301.45,148.76Z"/><path class="cls-10" d="M304.14,147.21a1.48,1.48,0,0,1-.66,1.15c-.37.21-.67,0-.67-.38a1.45,1.45,0,0,1,.67-1.15C303.84,146.62,304.14,146.79,304.14,147.21Z"/><path class="cls-10" d="M306.83,145.66a1.47,1.47,0,0,1-.67,1.15c-.36.21-.66,0-.66-.39a1.47,1.47,0,0,1,.66-1.14C306.53,145.06,306.83,145.24,306.83,145.66Z"/><path class="cls-10" d="M309.52,144.11a1.48,1.48,0,0,1-.67,1.15c-.36.21-.66,0-.66-.39a1.48,1.48,0,0,1,.66-1.15C309.22,143.51,309.52,143.68,309.52,144.11Z"/><path class="cls-10" d="M312.21,142.55a1.45,1.45,0,0,1-.67,1.15c-.36.21-.66,0-.66-.38a1.48,1.48,0,0,1,.66-1.15C311.91,142,312.21,142.13,312.21,142.55Z"/><path class="cls-10" d="M324.78,163.47a1.45,1.45,0,0,1-.67,1.15c-.36.22-.66,0-.66-.38a1.48,1.48,0,0,1,.66-1.15C324.48,162.88,324.78,163.05,324.78,163.47Z"/><path class="cls-10" d="M327.46,161.92a1.44,1.44,0,0,1-.66,1.15c-.37.21-.66,0-.66-.38a1.46,1.46,0,0,1,.66-1.15C327.17,161.33,327.46,161.5,327.46,161.92Z"/><path class="cls-10" d="M330.15,160.37a1.46,1.46,0,0,1-.66,1.15c-.37.21-.66,0-.66-.38a1.44,1.44,0,0,1,.66-1.15C329.86,159.78,330.15,160,330.15,160.37Z"/><path class="cls-10" d="M332.84,158.82a1.46,1.46,0,0,1-.66,1.15c-.37.21-.66,0-.66-.39a1.47,1.47,0,0,1,.66-1.15C332.55,158.22,332.84,158.39,332.84,158.82Z"/><path class="cls-10" d="M335.53,157.27a1.47,1.47,0,0,1-.66,1.14c-.37.22-.67,0-.67-.38a1.47,1.47,0,0,1,.67-1.15C335.23,156.67,335.53,156.84,335.53,157.27Z"/><path class="cls-10" d="M324.78,166.27a1.47,1.47,0,0,1-.67,1.15c-.36.21-.66,0-.66-.38a1.47,1.47,0,0,1,.66-1.15C324.48,165.67,324.78,165.85,324.78,166.27Z"/><path class="cls-10" d="M327.46,164.72a1.47,1.47,0,0,1-.66,1.15c-.37.21-.66,0-.66-.39a1.47,1.47,0,0,1,.66-1.15C327.17,164.12,327.46,164.29,327.46,164.72Z"/><path class="cls-10" d="M330.15,163.16a1.44,1.44,0,0,1-.66,1.15c-.37.22-.66,0-.66-.38a1.46,1.46,0,0,1,.66-1.15C329.86,162.57,330.15,162.74,330.15,163.16Z"/><path class="cls-10" d="M332.84,161.61a1.44,1.44,0,0,1-.66,1.15c-.37.21-.66,0-.66-.38a1.44,1.44,0,0,1,.66-1.15C332.55,161,332.84,161.19,332.84,161.61Z"/><path class="cls-10" d="M335.53,160.06a1.48,1.48,0,0,1-.66,1.15c-.37.21-.67,0-.67-.38a1.45,1.45,0,0,1,.67-1.15C335.23,159.46,335.53,159.64,335.53,160.06Z"/><path class="cls-10" d="M324.78,169.05a1.47,1.47,0,0,1-.67,1.15c-.36.21-.66,0-.66-.39a1.47,1.47,0,0,1,.66-1.14C324.48,168.45,324.78,168.63,324.78,169.05Z"/><path class="cls-10" d="M327.46,167.5a1.47,1.47,0,0,1-.66,1.15c-.37.21-.66,0-.66-.39a1.46,1.46,0,0,1,.66-1.15C327.17,166.9,327.46,167.07,327.46,167.5Z"/><path class="cls-10" d="M330.15,165.94a1.44,1.44,0,0,1-.66,1.15c-.37.21-.66,0-.66-.38a1.46,1.46,0,0,1,.66-1.15C329.86,165.35,330.15,165.52,330.15,165.94Z"/><path class="cls-10" d="M332.84,164.39a1.46,1.46,0,0,1-.66,1.15c-.37.21-.66,0-.66-.38a1.44,1.44,0,0,1,.66-1.15C332.55,163.8,332.84,164,332.84,164.39Z"/><path class="cls-10" d="M335.53,162.84a1.48,1.48,0,0,1-.66,1.15c-.37.21-.67,0-.67-.39a1.45,1.45,0,0,1,.67-1.14C335.23,162.24,335.53,162.42,335.53,162.84Z"/><path class="cls-10" d="M324.78,171.84a1.45,1.45,0,0,1-.67,1.15c-.36.21-.66,0-.66-.38a1.48,1.48,0,0,1,.66-1.15C324.48,171.25,324.78,171.42,324.78,171.84Z"/><path class="cls-10" d="M327.46,170.29a1.46,1.46,0,0,1-.66,1.15c-.37.21-.66,0-.66-.38a1.44,1.44,0,0,1,.66-1.15C327.17,169.7,327.46,169.87,327.46,170.29Z"/><path class="cls-10" d="M330.15,168.74a1.46,1.46,0,0,1-.66,1.15c-.37.21-.66,0-.66-.39a1.47,1.47,0,0,1,.66-1.15C329.86,168.14,330.15,168.31,330.15,168.74Z"/><path class="cls-10" d="M332.84,167.19a1.44,1.44,0,0,1-.66,1.14c-.37.22-.66,0-.66-.38a1.46,1.46,0,0,1,.66-1.15C332.55,166.59,332.84,166.76,332.84,167.19Z"/><path class="cls-10" d="M335.53,165.63a1.47,1.47,0,0,1-.66,1.15c-.37.21-.67,0-.67-.38a1.47,1.47,0,0,1,.67-1.15C335.23,165,335.53,165.21,335.53,165.63Z"/><path class="cls-10" d="M324.78,174.64a1.48,1.48,0,0,1-.67,1.15c-.36.21-.66,0-.66-.39a1.5,1.5,0,0,1,.66-1.15C324.48,174,324.78,174.21,324.78,174.64Z"/><path class="cls-10" d="M327.46,173.08a1.44,1.44,0,0,1-.66,1.15c-.37.22-.66,0-.66-.38a1.46,1.46,0,0,1,.66-1.15C327.17,172.49,327.46,172.66,327.46,173.08Z"/><path class="cls-10" d="M330.15,171.53a1.44,1.44,0,0,1-.66,1.15c-.37.21-.66,0-.66-.38a1.46,1.46,0,0,1,.66-1.15C329.86,170.94,330.15,171.11,330.15,171.53Z"/><path class="cls-10" d="M332.84,170a1.46,1.46,0,0,1-.66,1.15c-.37.21-.66,0-.66-.38a1.44,1.44,0,0,1,.66-1.15C332.55,169.39,332.84,169.56,332.84,170Z"/><path class="cls-10" d="M335.53,168.43a1.48,1.48,0,0,1-.66,1.15c-.37.21-.67,0-.67-.39a1.48,1.48,0,0,1,.67-1.15C335.23,167.83,335.53,168,335.53,168.43Z"/><g id="_4" data-name="4"><path class="cls-8" d="M258.49,102,150.59,39.66a3,3,0,0,0-3.45,0l-5.29,3.2,3.92,5.65v84.68c0,3.55,2.16,7.68,4.82,9.21l100.75,58.17,5.19,7.47,5-3c1.09-.55,1.79-1.94,1.79-4V111.16C263.31,107.61,261.15,103.49,258.49,102Z"/><path class="cls-5" d="M261.52,109.29l-5,3-5.19-7.47L150.59,46.68c-.79-.46-3.45-.76-6.78-1l2,2.82v84.69c0,3.55,2.16,7.68,4.82,9.21l100.75,58.17,5.19,7.47,5-3c1.09-.55,1.79-1.94,1.79-4V111.16a11.07,11.07,0,0,0-.53-3.22A2.92,2.92,0,0,1,261.52,109.29Z"/><g id="_18-2" data-name="18"><path class="cls-5" d="M225.87,179.19h0v-2.08l-6-2.72-13.35-7.71c-2.25-1.3-5.65-1.44-7.6-.32L177,178.94l-6.38,2.67v2a.74.74,0,0,0,0,.21v0h0a3.23,3.23,0,0,0,1.85,2.34L190,196.37c2.25,1.3,5.65,1.44,7.6.31l26.95-15.5A2.21,2.21,0,0,0,225.87,179.19Z"/><path class="cls-6" d="M224.56,178.93l-26.95,15.51c-2,1.12-5.35,1-7.6-.32L172.49,184c-2.25-1.3-2.49-3.26-.55-4.39l27-15.5c1.95-1.13,5.35-1,7.6.31L224,174.55C226.27,175.84,226.51,177.81,224.56,178.93Z"/></g><path class="cls-5" d="M252.68,206.51l-107.4-60.93c-2.67-1.54-4.82-5.66-4.82-9.21V46.53c0-3.55,2.15-5.18,4.82-3.65l107.89,62.3c2.67,1.54,4.82,5.66,4.82,9.21v89.84C258,207.78,255.34,208,252.68,206.51Z"/><path class="cls-8" d="M140.46,125.93v10.89a11.45,11.45,0,0,0,5.18,9l107.17,61.88c2.86,1.65,5.18.31,5.18-3V193.79Z"/><path class="cls-6" d="M251,183,147.47,123.19a4.07,4.07,0,0,1-1.7-3.25V51.32c0-1.25.76-1.83,1.7-1.28L251,109.8a4.07,4.07,0,0,1,1.7,3.25v68.62C252.68,182.92,251.92,183.5,251,183Z"/><polygon class="cls-5" points="161.08 72.44 161.08 116.1 238.01 160.52 228.98 141.31 224.31 143.11 210.92 111.24 198.93 117.95 191.29 104.52 173.75 112.29 161.08 72.44"/><path d="M239.14,161.75l-78.56-45.36v-46a.18.18,0,0,1,.36-.06l13.12,41.25,17.44-7.73,7.62,13.4,12-6.75,13.43,31.94,4.64-1.79Zm-77.56-45.94,75.29,43.48L228.72,142l-4.68,1.8L210.67,112l-11.93,6.68-7.66-13.47L173.45,113,161.58,75.66Z"/><polygon class="cls-8" points="161.08 98.13 176.88 89.28 186.26 121.06 195.11 117.95 200.76 132.75 211.39 129.64 216.3 140.81 238.01 160.52 238.01 160.52 161.08 116.1 161.08 98.13"/><path d="M237.81,161l-77.23-44.59V97.84l16.6-9.3,9.41,31.88,8.82-3.1,5.66,14.82,10.6-3.11,5,11.48,21.68,19.68A.49.49,0,0,1,237.81,161Zm-76.23-45.17,72.63,41.94-18.33-16.64-4.77-10.87-10.65,3.12-5.64-14.77-8.89,3.12L176.58,90l-15,8.4Z"/></g><path d="M258.49,193.79h-1v-79a11.11,11.11,0,0,0-5.53-9.59L145,43.32l.5-.87,106.93,61.83a12.13,12.13,0,0,1,6,10.46Z"/><path d="M256.8,208.42l-.54-.85,4.38-2.76a4.59,4.59,0,0,0,2.17-3.92v-89a11.11,11.11,0,0,0-5.54-9.59L150.34,40.46l.5-.87,106.93,61.84a12.12,12.12,0,0,1,6,10.45v89a5.62,5.62,0,0,1-2.63,4.77Z"/><path d="M196.83,175.92l-51-29.52A11.76,11.76,0,0,1,140,136.26V125.93h1v10.33a10.75,10.75,0,0,0,5.34,9.28l51,29.52Z"/><path d="M194.51,198a11.59,11.59,0,0,1-4.73-1.18l-17.54-10.12.5-.87,17.52,10.12a10.19,10.19,0,0,0,5,1l.12,1A7.67,7.67,0,0,1,194.51,198Z"/><path class="cls-10" d="M261.38,113.1a1.45,1.45,0,0,1-.67,1.15c-.36.21-.66,0-.66-.38a1.48,1.48,0,0,1,.66-1.15C261.08,112.51,261.38,112.68,261.38,113.1Z"/><path class="cls-10" d="M261.38,115.9a1.47,1.47,0,0,1-.67,1.15c-.36.21-.66,0-.66-.39a1.47,1.47,0,0,1,.66-1.14C261.08,115.3,261.38,115.48,261.38,115.9Z"/><path class="cls-10" d="M261.38,118.68a1.47,1.47,0,0,1-.67,1.15c-.36.21-.66,0-.66-.39a1.5,1.5,0,0,1,.66-1.15C261.08,118.08,261.38,118.25,261.38,118.68Z"/><path class="cls-10" d="M261.38,121.47a1.45,1.45,0,0,1-.67,1.15c-.36.21-.66,0-.66-.38a1.47,1.47,0,0,1,.66-1.15C261.08,120.88,261.38,121.05,261.38,121.47Z"/><path class="cls-10" d="M261.38,124.27a1.48,1.48,0,0,1-.67,1.15c-.36.21-.66,0-.66-.39a1.48,1.48,0,0,1,.66-1.15C261.08,123.67,261.38,123.84,261.38,124.27Z"/><path class="cls-10" d="M261.38,127.05a1.45,1.45,0,0,1-.67,1.14c-.36.22-.66,0-.66-.38a1.48,1.48,0,0,1,.66-1.15C261.08,126.45,261.38,126.62,261.38,127.05Z"/><path class="cls-10" d="M261.38,129.84a1.47,1.47,0,0,1-.67,1.15c-.36.21-.66,0-.66-.38a1.47,1.47,0,0,1,.66-1.15C261.08,129.25,261.38,129.42,261.38,129.84Z"/><path class="cls-10" d="M261.38,132.62a1.47,1.47,0,0,1-.67,1.15c-.36.21-.66,0-.66-.38a1.47,1.47,0,0,1,.66-1.15C261.08,132,261.38,132.2,261.38,132.62Z"/><path class="cls-10" d="M261.38,135.41a1.45,1.45,0,0,1-.67,1.15c-.36.21-.66,0-.66-.38a1.48,1.48,0,0,1,.66-1.15C261.08,134.82,261.38,135,261.38,135.41Z"/><path class="cls-10" d="M261.38,138.19a1.45,1.45,0,0,1-.67,1.15c-.36.21-.66,0-.66-.38a1.48,1.48,0,0,1,.66-1.15C261.08,137.6,261.38,137.77,261.38,138.19Z"/><path class="cls-10" d="M261.38,141a1.48,1.48,0,0,1-.67,1.15c-.36.21-.66,0-.66-.39a1.5,1.5,0,0,1,.66-1.15C261.08,140.39,261.38,140.56,261.38,141Z"/><path class="cls-10" d="M261.38,143.78a1.47,1.47,0,0,1-.67,1.15c-.36.21-.66,0-.66-.38a1.47,1.47,0,0,1,.66-1.15C261.08,143.19,261.38,143.36,261.38,143.78Z"/><path class="cls-10" d="M261.38,146.56a1.47,1.47,0,0,1-.67,1.15c-.36.21-.66,0-.66-.38a1.47,1.47,0,0,1,.66-1.15C261.08,146,261.38,146.14,261.38,146.56Z"/><path class="cls-10" d="M261.38,149.35a1.45,1.45,0,0,1-.67,1.15c-.36.22-.66,0-.66-.38a1.48,1.48,0,0,1,.66-1.15C261.08,148.76,261.38,148.93,261.38,149.35Z"/><path class="cls-10" d="M261.38,152.13a1.45,1.45,0,0,1-.67,1.15c-.36.21-.66,0-.66-.38a1.48,1.48,0,0,1,.66-1.15C261.08,151.54,261.38,151.71,261.38,152.13Z"/><path class="cls-10" d="M261.38,154.93a1.47,1.47,0,0,1-.67,1.15c-.36.21-.66,0-.66-.39a1.47,1.47,0,0,1,.66-1.14C261.08,154.33,261.38,154.51,261.38,154.93Z"/><path class="cls-10" d="M261.38,157.71a1.47,1.47,0,0,1-.67,1.15c-.36.21-.66,0-.66-.39a1.5,1.5,0,0,1,.66-1.15C261.08,157.11,261.38,157.28,261.38,157.71Z"/><path class="cls-10" d="M261.38,160.5a1.47,1.47,0,0,1-.67,1.15c-.36.21-.66,0-.66-.38a1.47,1.47,0,0,1,.66-1.15C261.08,159.91,261.38,160.08,261.38,160.5Z"/><path class="cls-10" d="M261.38,163.28a1.47,1.47,0,0,1-.67,1.15c-.36.21-.66,0-.66-.38a1.47,1.47,0,0,1,.66-1.15C261.08,162.69,261.38,162.86,261.38,163.28Z"/><path class="cls-10" d="M261.38,166.08a1.45,1.45,0,0,1-.67,1.14c-.36.22-.66,0-.66-.38a1.48,1.48,0,0,1,.66-1.15C261.08,165.48,261.38,165.65,261.38,166.08Z"/><path class="cls-10" d="M261.38,168.87a1.47,1.47,0,0,1-.67,1.15c-.36.21-.66,0-.66-.38a1.47,1.47,0,0,1,.66-1.15C261.08,168.27,261.38,168.45,261.38,168.87Z"/><path class="cls-10" d="M261.38,171.65a1.47,1.47,0,0,1-.67,1.15c-.36.21-.66,0-.66-.39a1.47,1.47,0,0,1,.66-1.14C261.08,171.05,261.38,171.23,261.38,171.65Z"/><path class="cls-10" d="M261.38,174.44a1.45,1.45,0,0,1-.67,1.15c-.36.21-.66,0-.66-.38a1.48,1.48,0,0,1,.66-1.15C261.08,173.85,261.38,174,261.38,174.44Z"/><path class="cls-10" d="M261.38,177.22a1.45,1.45,0,0,1-.67,1.15c-.36.21-.66,0-.66-.38a1.48,1.48,0,0,1,.66-1.15C261.08,176.63,261.38,176.8,261.38,177.22Z"/><path class="cls-10" d="M261.38,180a1.48,1.48,0,0,1-.67,1.15c-.36.21-.66,0-.66-.39a1.5,1.5,0,0,1,.66-1.15C261.08,179.42,261.38,179.59,261.38,180Z"/><path class="cls-10" d="M261.38,182.8a1.48,1.48,0,0,1-.67,1.15c-.36.21-.66,0-.66-.39a1.48,1.48,0,0,1,.66-1.15C261.08,182.2,261.38,182.37,261.38,182.8Z"/><path class="cls-10" d="M261.38,185.59a1.47,1.47,0,0,1-.67,1.15c-.36.21-.66,0-.66-.38a1.47,1.47,0,0,1,.66-1.15C261.08,185,261.38,185.17,261.38,185.59Z"/><path class="cls-10" d="M261.38,188.38a1.45,1.45,0,0,1-.67,1.15c-.36.22-.66,0-.66-.38a1.48,1.48,0,0,1,.66-1.15C261.08,187.79,261.38,188,261.38,188.38Z"/><path class="cls-10" d="M261.38,191.16a1.45,1.45,0,0,1-.67,1.15c-.36.21-.66,0-.66-.38a1.48,1.48,0,0,1,.66-1.15C261.08,190.57,261.38,190.74,261.38,191.16Z"/><path class="cls-10" d="M261.38,194a1.47,1.47,0,0,1-.67,1.15c-.36.21-.66,0-.66-.39a1.5,1.5,0,0,1,.66-1.15C261.08,193.36,261.38,193.53,261.38,194Z"/><path class="cls-10" d="M261.38,196.74a1.48,1.48,0,0,1-.67,1.15c-.36.21-.66,0-.66-.39a1.5,1.5,0,0,1,.66-1.15C261.08,196.14,261.38,196.31,261.38,196.74Z"/><path class="cls-10" d="M261.38,199.53a1.47,1.47,0,0,1-.67,1.15c-.36.21-.66,0-.66-.38a1.47,1.47,0,0,1,.66-1.15C261.08,198.94,261.38,199.11,261.38,199.53Z"/><path class="cls-10" d="M261.38,202.31a1.47,1.47,0,0,1-.67,1.15c-.36.21-.66,0-.66-.38a1.47,1.47,0,0,1,.66-1.15C261.08,201.72,261.38,201.89,261.38,202.31Z"/><path class="cls-5" d="M228.22,184.23a19.13,19.13,0,1,0-22.43,18.83l3.3,9.14,3.3-9.14A19.13,19.13,0,0,0,228.22,184.23Z"/><path d="M209.09,213.67l-3.67-10.16a19.63,19.63,0,1,1,7.35,0Zm0-48.07a18.62,18.62,0,0,0-3.22,37l.29.05,2.93,8.11,2.93-8.11.29-.05a18.62,18.62,0,0,0-3.22-37Z"/><path class="cls-6" d="M218.47,189a4.64,4.64,0,0,1-1.93,4,9,9,0,0,1-5.38,1.41h-9.49V175.49h8.68a9.44,9.44,0,0,1,5.25,1.2,4,4,0,0,1,1.78,3.56,4.19,4.19,0,0,1-.89,2.73,4.63,4.63,0,0,1-2.72,1.5,5.79,5.79,0,0,1,3.5,1.44A4.17,4.17,0,0,1,218.47,189Zm-5.08-8.25a2,2,0,0,0-.81-1.82,4.43,4.43,0,0,0-2.42-.53h-4.52v4.69h4.55a4,4,0,0,0,2.44-.59A2.06,2.06,0,0,0,213.39,180.79Zm1.1,7.94q0-2.67-3.82-2.67h-5v5.44h5.18a4.47,4.47,0,0,0,2.79-.7A2.46,2.46,0,0,0,214.49,188.73Z"/><path class="cls-7" d="M219.25,222.84h0l-.73-3h-1.74a15.85,15.85,0,0,0-15.45,0h-1.67l-.8,3h0a3.43,3.43,0,0,0-.15.95c0,3.29,4.62,5.95,10.33,5.95s10.32-2.66,10.32-5.95A3.51,3.51,0,0,0,219.25,222.84Z"/><path class="cls-6" d="M218.6,220.51c0,3-4.26,5.48-9.51,5.48s-9.51-2.46-9.51-5.48,4.26-5.48,9.51-5.48S218.6,217.48,218.6,220.51Z"/><path class="cls-7" d="M213.89,220.19c0,1.42-2.16,2.57-4.83,2.57s-4.84-1.15-4.84-2.57,2.17-2.57,4.84-2.57S213.89,218.77,213.89,220.19Z"/><path d="M214,229.49l-.27-1c4.84-1.33,5.11-4.31,5.12-4.73l-.85-3.88,1-.22.86,3.94C219.89,223.91,219.9,227.87,214,229.49Z"/></g></g></g></svg>